<svg xmlns="http://www.w3.org/2000/svg" viewBox="0 0 219 53.558">
  <defs>
    <style>
      .cls-1 {
        fill: #1e80be;
      }

      .cls-1, .cls-2, .cls-3, .cls-4 {
        fill-rule: evenodd;
      }

      .cls-2 {
        fill: #1674ac;
      }

      .cls-3 {
        fill: #2da1d2;
      }

      .cls-4 {
        fill: #0463aa;
      }
    </style>
  </defs>
  <g id="Group_122" data-name="Group 122" transform="translate(-26 -29)">
    <g id="Group_33" data-name="Group 33" transform="translate(26 29)">
      <path id="Path_242" data-name="Path 242" class="cls-1" d="M143.416,24.988V18.45L120.219,5.06l-5.687,3.269,28.884,16.658Zm8.777-5.06L123.354,3.269,129,0l23.2,13.389v6.538Zm-17.509,10.12L105.8,13.389l5.687-3.269,23.2,13.389Z" transform="translate(-105.8)"/>
      <path id="Path_243" data-name="Path 243" class="cls-2" d="M168.754,29.569l5.687-3.269,2.821,1.657v3.269l-2.821,1.657-5.687-3.314Zm-8.777,5.06,5.687-3.269,2.821,1.657v3.269l-2.821,1.657-5.687-3.314Zm-3.09,8.329L151.2,39.689l5.687-3.269,2.821,1.657v3.269Z" transform="translate(-130.87 -14.523)"/>
      <path id="Path_244" data-name="Path 244" class="cls-3" d="M111.487,59.948,105.8,56.679,152.193,29.9v6.538Z" transform="translate(-105.8 -16.511)"/>
      <path id="Path_245" data-name="Path 245" class="cls-3" d="M150.587,95.027,144.9,91.758,173.784,75.1v6.538Z" transform="translate(-127.391 -41.47)"/>
      <path id="Path_246" data-name="Path 246" class="cls-3" d="M131.042,77.488,125.4,74.219,163.016,52.5v6.538Z" transform="translate(-116.623 -28.99)"/>
    </g>
    <path id="Path_303" data-name="Path 303" class="cls-4" d="M9.681,146.912A12.01,12.01,0,0,0,17.556,144v-8.026H9.53v3.511h4.063v2.659a6.338,6.338,0,0,1-3.812,1.1,5.511,5.511,0,0,1-5.568-5.869v-.05a5.544,5.544,0,0,1,5.317-5.718,6.832,6.832,0,0,1,4.815,1.856l2.558-3.06A9.953,9.953,0,0,0,9.681,127.9,9.5,9.5,0,0,0,0,137.432v.05c0,5.417,3.963,9.43,9.681,9.43Zm11.336-.3H25.03v-5.217c0-3.361,1.655-4.966,4.314-4.966h.2v-4.213a4.371,4.371,0,0,0-4.514,3.11v-2.859H21.017v14.145Zm15.7.251a5.028,5.028,0,0,0,4.113-2.257v2.006h4.013v-14.1H40.831v7.875c0,1.906-.953,2.859-2.508,2.859-1.5,0-2.408-.953-2.408-2.859v-7.875H31.9v9.129c.05,3.21,1.806,5.217,4.815,5.217Zm11.738,3.963h4.013v-6.069a5.368,5.368,0,0,0,4.414,2.107c3.361,0,6.421-2.558,6.421-7.273v-.05c0-4.715-3.11-7.273-6.421-7.273a5.206,5.206,0,0,0-4.414,2.307v-2.006H48.455v18.258Zm7.374-7.374c-1.856,0-3.411-1.555-3.411-3.913v-.05c0-2.358,1.555-3.913,3.411-3.913a3.622,3.622,0,0,1,3.461,3.913v.05a3.592,3.592,0,0,1-3.461,3.913Zm17.305,3.461a7.416,7.416,0,0,0,7.675-7.323v-.05a7.331,7.331,0,0,0-7.624-7.273,7.416,7.416,0,0,0-7.675,7.323v.05a7.393,7.393,0,0,0,7.624,7.273Zm.05-3.461a3.75,3.75,0,0,1-3.712-3.913v-.05a3.635,3.635,0,0,1,3.662-3.862,3.75,3.75,0,0,1,3.712,3.913v.05a3.608,3.608,0,0,1-3.662,3.862Zm18.86,3.16h7.173c5.819,0,9.781-4.013,9.781-9.23v-.05c0-5.167-4.013-9.179-9.781-9.179H92.044v18.459Zm4.063-3.662V131.814h3.11a5.319,5.319,0,0,1,5.568,5.568v.05a5.279,5.279,0,0,1-5.568,5.518Zm22.773,3.963a6.994,6.994,0,0,0,5.768-2.658l-2.307-2.006a4.675,4.675,0,0,1-3.411,1.455,3.283,3.283,0,0,1-3.461-2.759H125.3a7.766,7.766,0,0,0,.05-1.053c0-4.013-2.157-7.675-6.872-7.675a7.009,7.009,0,0,0-6.972,7.323v.05a7.072,7.072,0,0,0,7.374,7.323Zm-3.411-8.477c.3-1.806,1.4-3.01,3.06-3.01,1.705,0,2.759,1.2,2.959,3.01Zm13.092,8.176h4.013V127.4h-4.013v19.211Zm12.49.2a5.888,5.888,0,0,0,3.16-.8V142.8a4.355,4.355,0,0,1-1.956.5c-.9,0-1.3-.451-1.3-1.354v-6.019h3.311v-3.411h-3.311V128.9h-4.013v3.612h-1.705v3.411h1.705V142.6c.05,3.26,1.705,4.213,4.113,4.213Zm10.183.05a5.312,5.312,0,0,0,4.264-1.806v1.5h3.862v-8.176a6.155,6.155,0,0,0-1.5-4.514,6.469,6.469,0,0,0-4.765-1.555,12.119,12.119,0,0,0-5.467,1.154l1,3.06a10.866,10.866,0,0,1,3.913-.752c2.006,0,3.01.9,3.01,2.558v.251a9.734,9.734,0,0,0-3.461-.6c-3.361,0-5.668,1.4-5.668,4.514v.05c-.05,2.809,2.157,4.314,4.815,4.314Zm1.2-2.759c-1.3,0-2.207-.652-2.207-1.705v-.05c0-1.254,1.053-1.956,2.759-1.956a5.824,5.824,0,0,1,2.558.552v.7C155.6,143.05,154.294,144.1,152.438,144.1Z" transform="translate(85.64 -83.4)"/>
  </g>
</svg>
