<svg xmlns="http://www.w3.org/2000/svg" viewBox="0 0 319.16 174.9"><defs><style>.a{fill:#fff;}.a,.b,.c{fill-rule:evenodd;}.b{fill:#f6f7f6;}.c{fill:#efefef;}</style></defs><path class="a" d="M19.389,166.479a24.053,24.053,0,0,0,15.772-5.827V144.579H19.087v7.032h8.137v5.324a12.693,12.693,0,0,1-7.635,2.21c-6.53,0-11.151-4.923-11.151-11.754v-.1c0-6.228,4.722-11.452,10.649-11.452,4.32,0,6.831,1.406,9.644,3.717l5.123-6.128c-3.817-3.315-7.836-5.023-14.466-5.023A19.02,19.02,0,0,0,0,147.492v.1c0,10.85,7.936,18.886,19.389,18.886Zm22.7-.6h8.037V155.428c0-6.731,3.315-9.945,8.64-9.945h.4v-8.439c-4.722-.2-7.434,2.311-9.041,6.229v-5.726H42.093v28.33Zm31.444.5c4.018,0,6.429-2.21,8.238-4.521v4.018h8.037V137.647H81.774v15.772c0,3.817-1.909,5.726-5.023,5.726-3.014,0-4.822-1.909-4.822-5.726V137.647H63.892V155.93c.1,6.429,3.617,10.448,9.644,10.448Zm23.508,7.936h8.037V162.159a10.75,10.75,0,0,0,8.84,4.219c6.731,0,12.859-5.123,12.859-14.567v-.1c0-9.443-6.228-14.567-12.859-14.567a10.426,10.426,0,0,0-8.84,4.621v-4.018H97.044v36.567Zm14.768-14.768c-3.717,0-6.831-3.114-6.831-7.836v-.1c0-4.722,3.114-7.836,6.831-7.836s6.932,3.114,6.932,7.836v.1c0,4.822-3.215,7.836-6.932,7.836Zm34.659,6.932c8.84,0,15.37-6.63,15.37-14.667v-.1c0-8.137-6.53-14.567-15.27-14.567-8.84,0-15.37,6.63-15.37,14.667v.1c.1,8.037,6.53,14.567,15.27,14.567Zm.1-6.932c-4.42,0-7.434-3.617-7.434-7.836v-.1c0-4.119,2.712-7.735,7.334-7.735,4.42,0,7.434,3.617,7.434,7.836v.1c0,4.219-2.712,7.735-7.334,7.735Zm37.773,6.329h14.366c11.653,0,19.59-8.037,19.59-18.484v-.1c0-10.347-8.037-18.384-19.59-18.384H184.343v36.969Zm8.137-7.334v-22.3h6.229c6.63,0,11.151,4.621,11.151,11.151v.1c0,6.53-4.521,11.051-11.151,11.051Zm45.609,7.936a14.008,14.008,0,0,0,11.553-5.324l-4.621-4.018a9.364,9.364,0,0,1-6.831,2.913,6.576,6.576,0,0,1-6.932-5.525h19.69a15.547,15.547,0,0,0,.1-2.11c0-8.037-4.32-15.37-13.763-15.37-8.238,0-13.964,6.63-13.964,14.667v.1c0,8.74,6.329,14.667,14.768,14.667ZM231.258,149.5c.6-3.617,2.813-6.028,6.128-6.028,3.416,0,5.525,2.411,5.927,6.028Zm26.22,16.375h8.037V127.4h-8.037v38.476Zm25.014.4a11.792,11.792,0,0,0,6.329-1.607v-6.429a8.723,8.723,0,0,1-3.918,1c-1.808,0-2.612-.9-2.612-2.712V144.478h6.63v-6.831h-6.63v-7.233h-8.037v7.233h-3.416v6.831h3.416v13.361c.1,6.53,3.416,8.439,8.238,8.439Zm20.393.1a10.64,10.64,0,0,0,8.539-3.617v3.014h7.735V149.4c0-3.817-.9-6.932-3.014-9.041-2.009-2.009-5.123-3.114-9.544-3.114a24.272,24.272,0,0,0-10.95,2.311l2.009,6.128a21.761,21.761,0,0,1,7.836-1.507c4.018,0,6.028,1.808,6.028,5.124v.5a19.494,19.494,0,0,0-6.932-1.206c-6.731,0-11.352,2.813-11.352,9.041v.1c-.1,5.626,4.32,8.639,9.644,8.639Zm2.411-5.525c-2.612,0-4.42-1.306-4.42-3.416v-.1c0-2.511,2.11-3.918,5.525-3.918a11.664,11.664,0,0,1,5.123,1.105v1.406C311.625,158.743,309.013,160.853,305.3,160.853Z" transform="translate(0 0.585)"/><g transform="translate(106.286)"><path class="b" d="M190.186,56.056V41.389L138.148,11.352,125.39,18.685l64.8,37.371ZM209.876,44.7,145.18,7.334,157.838,0l52.038,30.037V44.7Zm-39.28,22.7L105.8,30.037,118.558,22.7,170.6,52.741Z" transform="translate(-105.8)"/><path class="c" d="M190.58,33.634,203.338,26.3l6.329,3.717v7.334l-6.329,3.717L190.58,33.634ZM170.89,44.985l12.758-7.334,6.329,3.717V48.7l-6.329,3.717L170.89,44.985Zm-6.932,18.685L151.2,56.337,163.958,49l6.329,3.717v7.334Z" transform="translate(-105.591 0.121)"/><path class="a" d="M118.558,97.308,105.8,89.975,209.876,29.9V44.567Z" transform="translate(-105.8 0.137)"/><path class="a" d="M157.658,119.8,144.9,112.471,209.7,75.1V89.767Z" transform="translate(-105.62 0.345)"/><path class="a" d="M138.058,108.556,125.4,101.223,209.786,52.5V67.167Z" transform="translate(-105.71 0.241)"/></g></svg>